<svg xmlns="http://www.w3.org/2000/svg" width="31.5" height="31.5" viewBox="0 0 31.5 31.5">
  <g id="microphone-off-filled" transform="translate(-2.25 -2.25)">
    <path id="路径_5827" data-name="路径 5827" d="M25.875,19.125a7.875,7.875,0,0,1-13.2,5.782l1.6-1.586a5.625,5.625,0,0,0,9.349-4.2V13.973L33.75,3.848l-1.586-1.6L2.25,32.164,3.836,33.75l7.245-7.245a10.024,10.024,0,0,0,5.794,2.678V31.5h-4.5v2.25h11.25V31.5h-4.5V29.183a10.125,10.125,0,0,0,9-10.058V15.75h-2.25Z" fill="#fff"/>
    <path id="路径_5828" data-name="路径 5828" d="M10.125,19.485V15.75H7.875v3.375a10.125,10.125,0,0,0,.281,2.351Z" fill="#fff"/>
    <path id="路径_5829" data-name="路径 5829" d="M23.355,6.277a5.625,5.625,0,0,0-10.98,1.6v9.383Z" fill="#fff"/>
  </g>
</svg>
