<?xml version="1.0" standalone="no"?><!DOCTYPE svg PUBLIC "-//W3C//DTD SVG 1.1//EN" "http://www.w3.org/Graphics/SVG/1.1/DTD/svg11.dtd"><svg t="1646790805968" class="icon" viewBox="0 0 1024 1024" version="1.1" xmlns="http://www.w3.org/2000/svg" p-id="7371" xmlns:xlink="http://www.w3.org/1999/xlink" width="200" height="200"><defs><style type="text/css"></style></defs><path d="M735.902 709.308l-53.232-53.124-19.136-19.096-9.396-9.412L374 348.082l0 0.692L152.224 127.062 103.842 175.144 374 444.94l0 57.632c0 75.58 62.242 137.428 137.82 137.428 17.22 0 33.904-3.24 49.13-9.09l64.778 64.548c-34.666 17.586-73.624 27.72-113.564 27.72-125.972 0-242.73-97.18-242.73-233.18L191.546 489.998C191.546 644 316 775.402 466 796.026L466 960l92 0 0-163.974c44-6.704 86.132-22.444 123.254-45.244l190.556 190.156 48.066-48-67.694-67.57-116.432-115.918 116.448 115.918L735.902 709.308z" p-id="7372" fill="#FF375F"></path><path d="M650 502.572 650 201.428C650 125.848 587.582 64 512 64s-138 61.848-138 137.428l0 50.488 274.218 273.936C649.558 518.27 650 510.494 650 502.572z" p-id="7373" fill="#FF375F"></path><path d="M832.878 490l-77.882 0c0 40.992-10.996 79.352-29.862 112.394l55.144 55.032C813.324 609.206 832.878 551.852 832.878 490z" p-id="7374" fill="#FF375F"></path><path d="M919.998 892.854 852.204 825.368 919.914 892.938Z" p-id="7375" fill="#FF375F"></path></svg>