<?xml version="1.0" standalone="no"?><!DOCTYPE svg PUBLIC "-//W3C//DTD SVG 1.1//EN" "http://www.w3.org/Graphics/SVG/1.1/DTD/svg11.dtd"><svg t="1652404212115" class="icon" viewBox="0 0 1024 1024" version="1.1" xmlns="http://www.w3.org/2000/svg" p-id="2879" xmlns:xlink="http://www.w3.org/1999/xlink" width="200" height="200"><defs><style type="text/css">@font-face { font-family: feedback-iconfont; src: url("//at.alicdn.com/t/font_1031158_u69w8yhxdu.woff2?t=1630033759944") format("woff2"), url("//at.alicdn.com/t/font_1031158_u69w8yhxdu.woff?t=1630033759944") format("woff"), url("//at.alicdn.com/t/font_1031158_u69w8yhxdu.ttf?t=1630033759944") format("truetype"); }
</style></defs><path d="M683.323077 710.892308c9.846154-9.846154 9.846154-25.6 0-35.446154l-35.446154-35.446154c-9.846154-9.846154-25.6-9.846154-35.446154 0l-86.646154 86.646154c-5.907692 5.907692-17.723077 5.907692-23.630769 0l-86.646154-86.646154c-9.846154-9.846154-25.6-9.846154-35.446154 0l-35.446153 35.446154c-9.846154 9.846154-9.846154 25.6 0 35.446154l86.646153 86.646154c5.907692 5.907692 5.907692 17.723077 0 23.630769l-86.646153 86.646154c-9.846154 9.846154-9.846154 25.6 0 35.446153l35.446153 35.446154c9.846154 9.846154 25.6 9.846154 35.446154 0l86.646154-86.646154c5.907692-5.907692 17.723077-5.907692 23.630769 0l86.646154 86.646154c9.846154 9.846154 25.6 9.846154 35.446154 0l35.446154-35.446154c9.846154-9.846154 9.846154-25.6 0-35.446153l-86.646154-86.646154c-5.907692-5.907692-5.907692-17.723077 0-23.630769l86.646154-86.646154z m256-482.461539c-108.307692-120.123077-261.907692-187.076923-425.353846-187.076923S196.923077 108.307692 88.615385 228.430769c-7.876923 7.876923-5.907692 21.661538 1.96923 27.569231l59.076923 51.2c7.876923 7.876923 19.692308 5.907692 27.569231-1.969231 86.646154-92.553846 208.738462-145.723077 336.738462-145.723077s250.092308 53.169231 336.738461 145.723077c7.876923 7.876923 19.692308 7.876923 27.569231 1.969231l59.076923-51.2c7.876923-7.876923 9.846154-19.692308 1.969231-27.569231z m-425.353846 88.615385c-82.707692 0-161.476923 35.446154-216.615385 98.461538-7.876923 7.876923-5.907692 21.661538 1.969231 29.538462l63.015385 47.261538c7.876923 5.907692 19.692308 5.907692 25.6-1.96923 33.476923-35.446154 78.769231-55.138462 126.030769-55.138462s92.553846 19.692308 124.061538 53.169231c5.907692 7.876923 17.723077 7.876923 25.6 1.969231l63.015385-47.261539c9.846154-7.876923 9.846154-19.692308 1.969231-29.538461-53.169231-61.046154-131.938462-96.492308-214.646154-96.492308z" p-id="2880" fill="#d81e06"></path></svg>