<?xml version="1.0" standalone="no"?><!DOCTYPE svg PUBLIC "-//W3C//DTD SVG 1.1//EN" "http://www.w3.org/Graphics/SVG/1.1/DTD/svg11.dtd"><svg t="1627042538226" class="icon" viewBox="0 0 1024 1024" version="1.1" xmlns="http://www.w3.org/2000/svg" p-id="1348" xmlns:xlink="http://www.w3.org/1999/xlink" width="200" height="200"><defs><style type="text/css">@font-face { font-family: feedback-iconfont; src: url("//at.alicdn.com/t/font_1031158_1uhr8ri0pk5.eot?#iefix") format("embedded-opentype"), url("//at.alicdn.com/t/font_1031158_1uhr8ri0pk5.woff2") format("woff2"), url("//at.alicdn.com/t/font_1031158_1uhr8ri0pk5.woff") format("woff"), url("//at.alicdn.com/t/font_1031158_1uhr8ri0pk5.ttf") format("truetype"), url("//at.alicdn.com/t/font_1031158_1uhr8ri0pk5.svg#iconfont") format("svg"); }
</style></defs><path d="M916.83 660.42A346.29 346.29 0 0 0 684 446.81V398h55.31A73.6 73.6 0 0 0 792 376.26a27 27 0 0 0-38.3-38.13 20 20 0 0 1-14.39 5.87H707v-83.71a195 195 0 0 0-390 0V344h-32.41a20 20 0 0 1-14.37-5.76A27 27 0 0 0 232 376.36 73.68 73.68 0 0 0 284.59 398H340v48.8C192 487.12 86 623.12 86 778.26v153.42A27.67 27.67 0 0 0 113.46 959h797.08A27.67 27.67 0 0 0 938 931.68V778.26a340.39 340.39 0 0 0-21.17-117.84zM412.46 160.8a140.21 140.21 0 0 1 199.07 0c20.34 20.35 33.72 45.2 38.95 73.2h-68.23a75.25 75.25 0 0 0-140.49 0h-68.24c5.23-28 18.61-52.86 38.94-73.2z m120.81 100.1A21.27 21.27 0 1 1 512 239.63a21.3 21.3 0 0 1 21.27 21.27zM371 288h70.75a75.25 75.25 0 0 0 140.49 0H653v56H371z m259 110v77.85a118 118 0 0 1-236 0V398zM342.14 502.48c12.86 82.2 84.12 145.3 169.86 145.3s157-63.09 169.86-145.29c111.49 35.67 191.7 136.46 200.8 253.51H141.34c9.09-117.14 89.27-217.86 200.8-253.52zM140 905v-95h744v95z" fill="#999999" p-id="1349"></path></svg>
