<?xml version="1.0" standalone="no"?><!DOCTYPE svg PUBLIC "-//W3C//DTD SVG 1.1//EN" "http://www.w3.org/Graphics/SVG/1.1/DTD/svg11.dtd"><svg t="1646790868120" class="icon" viewBox="0 0 1024 1024" version="1.1" xmlns="http://www.w3.org/2000/svg" p-id="8995" xmlns:xlink="http://www.w3.org/1999/xlink" width="200" height="200"><defs><style type="text/css"></style></defs><path d="M512 640c75.424 0 137.142-61.848 137.142-137.428L649.142 201.428C649.142 125.848 587.424 64 512 64s-137.142 61.848-137.142 137.428l0 301.144C374.858 578.152 436.576 640 512 640zM754.278 489.096c0 137.428-116.564 233.63-242.278 233.63s-242.278-96.204-242.278-233.63L192 489.096c0 155.746 123.438 286.306 274.288 306.93L466.288 960l91.426 0 0-163.974C708.562 773.122 832 644.842 832 489.096L754.278 489.096z" p-id="8996" fill="#32D74B"></path></svg>