<?xml version="1.0" standalone="no"?><!DOCTYPE svg PUBLIC "-//W3C//DTD SVG 1.1//EN" "http://www.w3.org/Graphics/SVG/1.1/DTD/svg11.dtd"><svg t="1653613518473" class="icon" viewBox="0 0 1024 1024" version="1.1" xmlns="http://www.w3.org/2000/svg" p-id="3124" xmlns:xlink="http://www.w3.org/1999/xlink" width="200" height="200"><defs><style type="text/css">@font-face { font-family: feedback-iconfont; src: url("//at.alicdn.com/t/font_1031158_u69w8yhxdu.woff2?t=1630033759944") format("woff2"), url("//at.alicdn.com/t/font_1031158_u69w8yhxdu.woff?t=1630033759944") format("woff"), url("//at.alicdn.com/t/font_1031158_u69w8yhxdu.ttf?t=1630033759944") format("truetype"); }
</style></defs><path d="M621.858133 126.5152a52.343467 52.343467 0 0 0-53.162666 0.324267 16.503467 16.503467 0 0 0-2.9696 2.235733L339.729067 339.473067c-2.56 1.2288-5.341867 1.860267-8.174934 1.860266h-142.062933A53.026133 53.026133 0 0 0 136.533333 394.308267v218.333866A53.026133 53.026133 0 0 0 189.508267 665.6h142.062933c2.833067 0 5.614933 0.631467 8.174933 1.860267l225.9968 210.397866c0.904533 0.853333 1.911467 1.604267 2.9696 2.235734a52.923733 52.923733 0 0 0 26.862934 7.406933c9.028267 0 18.056533-2.3552 26.3168-7.082667A52.394667 52.394667 0 0 0 648.533333 834.4576V172.475733a52.3776 52.3776 0 0 0-26.6752-45.960533zM614.4 834.4576c0 9.847467-6.638933 14.711467-9.489067 16.349867-2.696533 1.536-9.591467 4.471467-17.493333 0.631466l-226.030933-210.432a15.786667 15.786667 0 0 0-3.003734-2.235733A52.855467 52.855467 0 0 0 331.554133 631.466667h-142.062933A18.858667 18.858667 0 0 1 170.666667 612.625067V394.308267c0-10.3936 8.448-18.8416 18.8416-18.8416h142.062933A52.906667 52.906667 0 0 0 358.4 368.162133a15.786667 15.786667 0 0 0 3.003733-2.235733L587.434667 155.4944a18.602667 18.602667 0 0 1 17.493333 0.631467c2.833067 1.6384 9.472 6.5024 9.472 16.349866v661.981867zM687.6672 346.333867a17.0496 17.0496 0 0 0 0 24.132266c73.335467 73.335467 73.335467 192.6656 0 266.001067a17.0496 17.0496 0 1 0 24.132267 24.132267c86.647467-86.647467 86.647467-227.618133 0-314.2656a17.0496 17.0496 0 0 0-24.132267 0z" fill="#1afa29" p-id="3125"></path><path d="M512 0C229.6832 0 0 229.6832 0 512s229.6832 512 512 512 512-229.6832 512-512S794.3168 0 512 0z m0 989.866667C248.507733 989.866667 34.133333 775.492267 34.133333 512S248.507733 34.133333 512 34.133333s477.866667 214.3744 477.866667 477.866667-214.3744 477.866667-477.866667 477.866667z" fill="#1afa29" p-id="3126"></path></svg>